<svg width="155" height="42" viewBox="0 0 155 42" fill="none" xmlns="http://www.w3.org/2000/svg">
<path d="M12.1094 33.5127C13.3301 33.5127 14.4043 33.3906 15.1123 33.293V28.7275C14.6973 28.752 14.2334 28.8252 13.6475 28.8252C11.4258 28.8252 10.3027 28.0195 10.3027 25.4805V11.8086H15.1123V7.12109H10.3027V0.553711H4.12598V7.12109H0.463867V11.8086H4.12598V25.9932C4.12598 31.3154 6.68945 33.5127 12.1094 33.5127ZM26.5869 33.4395C30.0049 33.4395 32.8857 31.7305 34.375 29.0205H34.5215V33H40.6006V15.2021C40.6006 10.002 36.4258 6.58398 29.9561 6.58398C23.3887 6.58398 19.4092 10.0264 19.043 14.6162L19.0186 14.9092H24.6582L24.707 14.6895C25.0977 12.7852 26.8555 11.4424 29.7363 11.4424C32.8125 11.4424 34.5215 13.0293 34.5215 15.6416V17.4238L27.7588 17.8389C21.4844 18.2295 17.9199 20.9883 17.9199 25.5781V25.627C17.9199 30.2412 21.4111 33.4395 26.5869 33.4395ZM23.9746 25.3828V25.3584C23.9746 23.3076 25.6104 22.0137 28.6133 21.8184L34.5215 21.4521V23.4053C34.5215 26.4814 31.8848 28.8008 28.3936 28.8008C25.7324 28.8008 23.9746 27.5068 23.9746 25.3828ZM45.5078 41.5449H51.5869V28.6299H51.709C53.1738 31.6572 56.1279 33.5127 59.8145 33.5127C66.3086 33.5127 70.459 28.3857 70.459 20.085V20.0605C70.459 11.7109 66.3086 6.58398 59.7412 6.58398C56.0303 6.58398 53.1982 8.48828 51.709 11.5889H51.5869V7.12109H45.5078V41.5449ZM57.9346 28.3857C54.1748 28.3857 51.5381 25.1387 51.5381 20.085V20.0605C51.5381 14.9824 54.1748 11.7109 57.9346 11.7109C61.8164 11.7109 64.2578 14.8848 64.2578 20.0605V20.085C64.2578 25.1875 61.8164 28.3857 57.9346 28.3857ZM83.9844 33.5127C85.2051 33.5127 86.2793 33.3906 86.9873 33.293V28.7275C86.5723 28.752 86.1084 28.8252 85.5225 28.8252C83.3008 28.8252 82.1777 28.0195 82.1777 25.4805V11.8086H86.9873V7.12109H82.1777V0.553711H76.001V7.12109H72.3389V11.8086H76.001V25.9932C76.001 31.3154 78.5645 33.5127 83.9844 33.5127ZM94.6289 41.5938C100.024 41.5938 103.052 39.5674 105.029 33.8789L114.331 7.12109H107.935L101.855 27.8242H101.685L95.6299 7.12109H88.9893L98.291 33.0244L97.9248 34.0742C97.1436 36.2471 95.8496 36.9062 93.5303 36.9062C92.6758 36.9062 91.9678 36.7842 91.5039 36.6865V41.3252C92.2363 41.4473 93.457 41.5938 94.6289 41.5938ZM117.139 33H123.218V17.1553C123.218 14.0059 125.269 11.7109 128.198 11.7109C131.03 11.7109 132.788 13.5176 132.788 16.4229V33H138.696V17.0088C138.696 13.8838 140.698 11.7109 143.628 11.7109C146.606 11.7109 148.267 13.542 148.267 16.7402V33H154.346V15.2266C154.346 10.0508 151.001 6.58398 145.898 6.58398C142.163 6.58398 139.087 8.58594 137.842 11.8086H137.695C136.743 8.48828 134.131 6.58398 130.518 6.58398C127.1 6.58398 124.438 8.43945 123.34 11.2715H123.218V7.12109H117.139V33Z" fill="#2580D5"/>
</svg>
